<?xml version="1.0" encoding="utf-8"?>
<svg version="1.0" width="390.000000pt" height="390.000000pt" viewBox="0 0 390.000000 390.000000" preserveAspectRatio="xMidYMid meet" xmlns="http://www.w3.org/2000/svg">
  <g transform="translate(0.000000,390.000000) scale(0.100000,-0.100000)" fill="#000000" stroke="none">
    <path d="M0 1950 l0 -1950 1950 0 1950 0 0 1950 0 1950 -1950 0 -1950 0 0 -1950z m1271 445 c60 -104 114 -190 120 -190 6 0 57 79 113 176 55 97 107 184 115 193 12 14 48 16 305 16 322 0 382 -8 482 -58 67 -34 180 -145 211 -207 55 -110 70 -210 48 -319 -23 -110 -65 -189 -141 -263 -35 -35 -64 -68 -64 -75 0 -7 40 -83 89 -168 49 -85 87 -158 84 -162 -2 -5 -101 -8 -218 -8 l-214 0 -57 98 c-31 53 -67 114 -80 135 l-24 37 -135 0 c-85 0 -135 4 -135 10 0 6 47 92 104 193 l104 182 119 5 c154 7 183 23 183 105 0 88 -38 105 -235 105 -139 0 -147 -1 -166 -22 -11 -13 -123 -203 -250 -423 -126 -220 -232 -401 -236 -402 -5 -2 -98 155 -208 349 -219 385 -256 434 -337 457 -125 35 -258 -67 -258 -198 0 -85 62 -167 149 -196 44 -14 60 -15 91 -6 70 21 68 23 177 -162 119 -201 120 -188 -20 -233 -68 -23 -100 -27 -192 -27 -94 0 -121 3 -190 27 -103 35 -185 85 -254 156 -109 109 -169 247 -178 406 -15 259 127 495 363 605 105 48 175 58 413 56 l214 -2 108 -190z m1546 173 c11 -13 53 -71 93 -130 40 -60 76 -108 79 -108 3 0 16 15 28 33 79 118 147 213 157 219 16 11 514 10 520 -1 5 -7 -77 -129 -276 -411 -41 -58 -94 -133 -118 -167 l-43 -63 39 -55 c291 -412 375 -536 369 -545 -4 -6 -110 -10 -260 -10 l-254 0 -43 58 c-24 31 -59 81 -78 109 -19 29 -38 53 -41 53 -3 0 -33 -39 -66 -87 -67 -96 -98 -133 -114 -133 -5 0 -18 14 -27 31 -9 17 -39 68 -65 113 -27 44 -61 106 -77 137 l-29 56 56 64 c76 87 110 142 133 218 65 210 -57 517 -239 602 -28 13 -50 27 -51 32 0 4 64 7 143 7 136 0 145 -1 164 -22z" style="fill: rgb(228, 54, 0);"/>
  </g>
</svg>